<svg width="50" height="51" viewBox="0 0 50 51" fill="none" xmlns="http://www.w3.org/2000/svg">
<g clip-path="url(#clip0_105_2476)">
<path d="M25 50.999C38.8071 50.999 50 39.5823 50 25.499C50 11.4158 38.8071 -0.000976562 25 -0.000976562C11.1929 -0.000976562 0 11.4158 0 25.499C0 39.5823 11.1929 50.999 25 50.999Z" fill="#F0F0F0"/>
<path d="M33.6954 25.499C33.6954 27.7164 29.8022 33.2599 24.9998 33.2599C20.1974 33.2599 16.3042 27.7164 16.3042 25.499C16.3042 20.6004 20.1974 16.6295 24.9998 16.6295C29.8022 16.6295 33.6954 20.6004 33.6954 25.499Z" fill="#D80027"/>
<path d="M33.6954 25.499C33.6954 30.3976 29.8022 34.3685 24.9998 34.3685C20.1974 34.3685 16.3042 30.3976 16.3042 25.499" fill="#0052B4"/>
<path d="M34.2163 33.3391L36.5217 30.9876L38.0587 32.5553L35.7533 34.9068L34.2163 33.3391Z" fill="black"/>
<path d="M30.3726 37.2585L32.678 34.907L34.2149 36.4747L31.9095 38.8263L30.3726 37.2585Z" fill="black"/>
<path d="M38.8276 38.042L41.133 35.6905L42.67 37.2582L40.3646 39.6097L38.8276 38.042Z" fill="black"/>
<path d="M34.9839 41.9619L37.2893 39.6104L38.8263 41.1781L36.5209 43.5296L34.9839 41.9619Z" fill="black"/>
<path d="M36.522 35.6907L38.8274 33.3392L40.3644 34.9069L38.0589 37.2584L36.522 35.6907Z" fill="black"/>
<path d="M32.6792 39.6099L34.9846 37.2583L36.5216 38.826L34.2162 41.1776L32.6792 39.6099Z" fill="black"/>
<path d="M38.8379 17.6633L32.6901 11.3926L34.2271 9.82488L40.3749 16.0956L38.8379 17.6633Z" fill="black"/>
<path d="M32.6885 16.0962L30.3831 13.7447L31.92 12.177L34.2254 14.5286L32.6885 16.0962Z" fill="black"/>
<path d="M36.5312 20.0164L34.2258 17.6648L35.7627 16.0972L38.0681 18.4487L36.5312 20.0164Z" fill="black"/>
<path d="M37.2988 11.3923L34.9934 9.04081L36.5304 7.47311L38.8358 9.82463L37.2988 11.3923Z" fill="black"/>
<path d="M41.1436 15.313L38.8381 12.9615L40.3751 11.3938L42.6805 13.7453L41.1436 15.313Z" fill="black"/>
<path d="M8.86279 35.6863L15.0106 41.957L13.4736 43.5247L7.32583 37.254L8.86279 35.6863Z" fill="black"/>
<path d="M15.0103 37.2527L17.3157 39.6042L15.7788 41.1718L13.4734 38.8203L15.0103 37.2527Z" fill="black"/>
<path d="M11.1675 33.3342L13.4729 35.6858L11.9359 37.2535L9.63052 34.9019L11.1675 33.3342Z" fill="black"/>
<path d="M13.4731 30.9819L19.6209 37.2527L18.084 38.8204L11.9362 32.5496L13.4731 30.9819Z" fill="black"/>
<path d="M15.0098 9.03589L8.86197 15.3066L7.32501 13.7389L13.4728 7.46818L15.0098 9.03589Z" fill="black"/>
<path d="M17.3154 11.3872L11.1676 17.658L9.63067 16.0903L15.7785 9.8195L17.3154 11.3872Z" fill="black"/>
<path d="M19.623 13.7401L13.4753 20.0109L11.9384 18.4432L18.0861 12.1725L19.623 13.7401Z" fill="black"/>
</g>
<defs>
<clipPath id="clip0_105_2476">
<rect width="50" height="51" fill="white" transform="translate(0 -0.000976562)"/>
</clipPath>
</defs>
</svg>
